<svg width="20" height="20" viewBox="0 0 25 24" fill="none" xmlns="http://www.w3.org/2000/svg">
<g id="Name=Account, State=False" opacity="0.8">
<path id="Vector" d="M16.8985 13.1603C19.9129 13.1603 22.3198 15.7771 22.4301 18.9992L22.4341 19.2303V20.4882C22.4341 21.0235 22.0275 21.4642 21.5052 21.5206L21.3916 21.5267H4.54253C4.00514 21.5267 3.56272 21.1216 3.50612 20.6013L3.5 20.4882V19.2303C3.5 15.9806 5.83681 13.2882 8.82135 13.1647L9.03561 13.1603H16.8985ZM16.8985 14.9603H9.03561C7.06482 14.9603 5.40353 16.7279 5.30465 19.0145L5.3 19.2303L5.299 19.726H20.6341V19.2303C20.6341 16.9125 19.0325 15.0747 17.0823 14.9654L16.8985 14.9603ZM12.9671 2C15.6642 2 17.8466 4.19477 17.8466 6.89721C17.8466 9.59965 15.6642 11.7944 12.9671 11.7944C10.2699 11.7944 8.08753 9.59965 8.08753 6.89721C8.08753 4.19477 10.2699 2 12.9671 2ZM12.9671 3.8C11.2673 3.8 9.88753 5.18563 9.88753 6.89721C9.88753 8.60879 11.2673 9.99442 12.9671 9.99442C14.6668 9.99442 16.0466 8.60879 16.0466 6.89721C16.0466 5.18563 14.6668 3.8 12.9671 3.8Z" fill="white"/>
</g>
</svg>
