<svg width="20" height="20" viewBox="0 0 25 24" fill="none" xmlns="http://www.w3.org/2000/svg">
<g id="Name=Affiliate, State=False" opacity="0.8">
<g id="Vector">
<path fill-rule="evenodd" clip-rule="evenodd" d="M19.6951 6.86612C19.4805 6.74223 19.2885 6.59428 19.1205 6.42765L17.1376 7.44997C16.7133 7.66874 16.192 7.50211 15.9732 7.07781C15.7545 6.65351 15.9211 6.1322 16.3454 5.91344L18.3292 4.89065C18.2274 4.27303 18.3307 3.61774 18.6681 3.03336C19.4429 1.69138 21.1589 1.23158 22.5009 2.00638C23.8428 2.78117 24.3026 4.49715 23.5279 5.83914C22.7531 7.18112 21.0371 7.64091 19.6951 6.86612ZM20.1722 3.90174C19.877 4.41304 20.0522 5.06684 20.5635 5.36205C21.0748 5.65725 21.7286 5.48206 22.0238 4.97076C22.319 4.45945 22.1438 3.80565 21.6325 3.51045C21.1212 3.21525 20.4674 3.39043 20.1722 3.90174Z" fill="white"/>
<path fill-rule="evenodd" clip-rule="evenodd" d="M13.4503 14.6556C16.2299 14.6556 18.4492 17.0685 18.5509 20.0395L18.5546 20.2526V21.4125C18.5546 21.906 18.1797 22.3124 17.698 22.3644L17.5933 22.37H2.05724C1.56173 22.37 1.15378 21.9966 1.10159 21.5168L1.09595 21.4125V20.2526C1.09595 17.2561 3.25066 14.7735 6.00262 14.6597L6.20019 14.6556H13.4503ZM6.20019 16.3153C4.38298 16.3153 2.85114 17.9452 2.75997 20.0536L2.75568 20.2526L2.75476 20.7097H16.8948V20.2526C16.8948 18.1155 15.4181 16.4208 13.6198 16.32L13.4503 16.3153H6.20019Z" fill="white"/>
<path fill-rule="evenodd" clip-rule="evenodd" d="M9.82526 4.36499C12.3122 4.36499 14.3245 6.38873 14.3245 8.88058C14.3245 11.3724 12.3122 13.3962 9.82526 13.3962C7.33831 13.3962 5.32599 11.3724 5.32599 8.88058C5.32599 6.38873 7.33831 4.36499 9.82526 4.36499ZM9.82526 6.02473C8.25795 6.02473 6.98572 7.30238 6.98572 8.88058C6.98572 10.4588 8.25795 11.7364 9.82526 11.7364C11.3926 11.7364 12.6648 10.4588 12.6648 8.88058C12.6648 7.30238 11.3926 6.02473 9.82526 6.02473Z" fill="white"/>
<path fill-rule="evenodd" clip-rule="evenodd" d="M17.2085 9.55667C16.8069 9.29859 16.2721 9.41495 16.0141 9.81655C15.756 10.2182 15.8723 10.7529 16.2739 11.011L18.1512 12.2173C18.0909 12.4461 18.0588 12.6862 18.0588 12.9339C18.0588 14.4835 19.315 15.7396 20.8646 15.7396C22.4142 15.7396 23.6704 14.4835 23.6704 12.9339C23.6704 11.3843 22.4142 10.1281 20.8646 10.1281C20.1897 10.1281 19.5705 10.3664 19.0864 10.7634L17.2085 9.55667ZM19.7956 12.9339C19.7956 12.3435 20.2742 11.8648 20.8646 11.8648C21.455 11.8648 21.9336 12.3435 21.9336 12.9339C21.9336 13.5243 21.455 14.0029 20.8646 14.0029C20.2742 14.0029 19.7956 13.5243 19.7956 12.9339Z" fill="white"/>
</g>
</g>
</svg>
