<svg width="20" height="20" viewBox="0 0 25 24" fill="none" xmlns="http://www.w3.org/2000/svg">
<g id="Name=Affiliate, State=True">
<g id="Vector">
<path d="M18.9196 2.9705C18.6059 3.51389 18.5041 4.1215 18.5886 4.69758L16.4544 5.79794C16.0271 6.01824 15.8593 6.5432 16.0796 6.97048C16.2999 7.39776 16.8249 7.56555 17.2522 7.34526L19.3856 6.24533C19.5378 6.39104 19.7098 6.521 19.9005 6.63107C21.1822 7.37106 22.8211 6.93192 23.561 5.65022C24.301 4.36853 23.8619 2.72964 22.5802 1.98965C21.2985 1.24966 19.6596 1.68881 18.9196 2.9705Z" fill="white"/>
<path d="M16.1208 9.72845C16.3806 9.32403 16.9192 9.20686 17.3236 9.46674L19.3439 10.765C19.8006 10.4036 20.3777 10.1879 21.0053 10.1879C22.4853 10.1879 23.6851 11.3877 23.6851 12.8676C23.6851 14.3476 22.4853 15.5473 21.0053 15.5473C19.5254 15.5473 18.3256 14.3476 18.3256 12.8676C18.3256 12.6476 18.3521 12.4338 18.4021 12.2292L16.3825 10.9313C15.978 10.6714 15.8609 10.1329 16.1208 9.72845Z" fill="white"/>
<path d="M18.6789 20.2353C18.6789 17.1428 16.4021 14.5931 13.5334 14.5931H6.22477C3.35611 14.5931 1.07935 17.1428 1.07935 20.2353V21.4045C1.07935 21.9376 1.5132 22.3698 2.0484 22.3698H17.7098C18.245 22.3698 18.6789 21.9376 18.6789 21.4045V20.2353Z" fill="white"/>
<path d="M14.4147 8.77153C14.4147 6.25958 12.3861 4.21951 9.8791 4.21951C7.37208 4.21951 5.34352 6.25958 5.34352 8.77153C5.34352 11.2835 7.37208 13.3236 9.8791 13.3236C12.3861 13.3236 14.4147 11.2835 14.4147 8.77153Z" fill="white"/>
</g>
</g>
</svg>
