<svg width="20" height="20" viewBox="0 0 23 20" fill="none" xmlns="http://www.w3.org/2000/svg">
<path fill-rule="evenodd" clip-rule="evenodd" d="M17.0349 16.3V18.145C17.0369 18.2625 17.0154 18.3791 16.9719 18.4883C16.9283 18.5974 16.8634 18.6967 16.781 18.7805C16.6986 18.8643 16.6004 18.9308 16.4921 18.9762C16.3837 19.0216 16.2674 19.045 16.1499 19.045C15.9112 19.045 15.6823 18.9501 15.5135 18.7814C15.3447 18.6126 15.2499 18.3837 15.2499 18.145V16.3C15.2499 15.5521 14.9528 14.8348 14.4239 14.3059C13.8951 13.7771 13.1778 13.48 12.4299 13.48H5.00487C4.25956 13.4839 3.54617 13.7828 3.02055 14.3112C2.49494 14.8396 2.19986 15.5546 2.19987 16.3V18.145C2.19987 18.3837 2.10508 18.6126 1.93629 18.7814C1.76751 18.9501 1.53856 19.045 1.29987 19.045C1.06117 19.045 0.832265 18.9501 0.663483 18.7814C0.4947 18.6126 0.399902 18.3837 0.399902 18.145V16.3C0.399902 15.0786 0.885052 13.9074 1.74866 13.0438C2.61226 12.1802 3.78355 11.695 5.00487 11.695H12.4299C13.0352 11.693 13.6349 11.8108 14.1945 12.0415C14.7541 12.2722 15.2625 12.6113 15.6905 13.0393C16.1185 13.4673 16.4576 13.9758 16.6884 14.5354C16.9191 15.095 17.0369 15.6947 17.0349 16.3Z" fill="white"/>
<path fill-rule="evenodd" clip-rule="evenodd" d="M8.67988 0.549988C7.7691 0.549988 6.87877 0.820076 6.12149 1.32608C5.3642 1.83208 4.77397 2.55129 4.42543 3.39275C4.07688 4.2342 3.98567 5.16008 4.16336 6.05336C4.34104 6.94664 4.77965 7.76719 5.42367 8.41121C6.06769 9.05523 6.88819 9.49384 7.78147 9.67152C8.67476 9.84921 9.60068 9.758 10.4421 9.40945C11.2836 9.06091 12.0028 8.47068 12.5088 7.71339C13.0148 6.95611 13.2849 6.06578 13.2849 5.155C13.2809 3.93489 12.7945 2.76589 11.9317 1.90314C11.069 1.04039 9.89999 0.553943 8.67988 0.549988ZM8.67988 7.97501C8.12214 7.97501 7.57693 7.80962 7.11318 7.49976C6.64944 7.18989 6.28796 6.74946 6.07452 6.23418C5.86108 5.71889 5.80526 5.15188 5.91407 4.60486C6.02288 4.05783 6.29148 3.55532 6.68586 3.16093C7.08025 2.76655 7.58271 2.498 8.12974 2.38919C8.67677 2.28038 9.24377 2.3362 9.75906 2.54964C10.2743 2.76308 10.7148 3.12456 11.0246 3.5883C11.3345 4.05205 11.4999 4.59726 11.4999 5.155C11.4999 5.90291 11.2028 6.62016 10.6739 7.14902C10.145 7.67787 9.42779 7.97501 8.67988 7.97501Z" fill="white"/>
<path fill-rule="evenodd" clip-rule="evenodd" d="M22.5999 16.3V18.145C22.6019 18.2625 22.5805 18.3791 22.5369 18.4883C22.4933 18.5974 22.4284 18.6967 22.346 18.7805C22.2637 18.8643 22.1654 18.9308 22.0571 18.9762C21.9487 19.0216 21.8324 19.045 21.7149 19.045C21.4762 19.045 21.2473 18.9501 21.0785 18.7814C20.9097 18.6126 20.8149 18.3837 20.8149 18.145V16.3C20.8174 15.6742 20.6105 15.0656 20.2273 14.5709C19.844 14.0762 19.3064 13.7239 18.6999 13.57C18.4693 13.51 18.272 13.361 18.1511 13.1558C18.0302 12.9505 17.9956 12.7057 18.0549 12.475C18.0855 12.3616 18.1385 12.2555 18.2106 12.1627C18.2827 12.07 18.3725 11.9926 18.4749 11.935C18.6092 11.8501 18.7661 11.8082 18.9249 11.815C18.9991 11.8004 19.0756 11.8004 19.1499 11.815C20.1433 12.0697 21.0229 12.6497 21.6482 13.4626C22.2735 14.2755 22.6085 15.2744 22.5999 16.3Z" fill="white"/>
<path fill-rule="evenodd" clip-rule="evenodd" d="M18.8949 5.16999C18.9034 6.19944 18.5668 7.20205 17.9387 8.01774C17.3106 8.83343 16.4273 9.41517 15.4299 9.66999C15.317 9.70031 15.1992 9.70796 15.0834 9.69251C14.9675 9.67707 14.8558 9.63878 14.7549 9.57995C14.5529 9.45458 14.4076 9.25554 14.3499 9.02496C14.3196 8.91208 14.3119 8.79433 14.3273 8.67848C14.3428 8.56262 14.381 8.45098 14.4399 8.34998C14.5664 8.14909 14.7649 8.00417 14.9949 7.94496C15.5998 7.78835 16.1356 7.43525 16.5181 6.94113C16.9006 6.447 17.1081 5.83986 17.1081 5.21499C17.1081 4.59012 16.9006 3.98294 16.5181 3.48881C16.1356 2.99468 15.5998 2.64159 14.9949 2.48498C14.7638 2.41933 14.5658 2.26948 14.4399 2.06498C14.3802 1.9643 14.3415 1.85261 14.3261 1.73663C14.3106 1.62065 14.3187 1.50275 14.3499 1.38996C14.3779 1.27639 14.4282 1.16951 14.4978 1.07548C14.5674 0.981454 14.6549 0.902183 14.7553 0.842203C14.8557 0.782223 14.9671 0.742708 15.0829 0.726023C15.1987 0.709337 15.3166 0.715793 15.4299 0.744974C16.4149 0.996618 17.2889 1.56713 17.9157 2.36756C18.5425 3.168 18.8868 4.15339 18.8949 5.16999Z" fill="white"/>
</svg>
