<svg width="20" height="20" viewBox="0 0 23 20" fill="none" xmlns="http://www.w3.org/2000/svg">
<path fill-rule="evenodd" clip-rule="evenodd" d="M11.5425 9.48569C10.7388 10.0196 9.79477 10.3029 8.82996 10.3C7.54085 10.2921 6.30706 9.77545 5.39691 8.86249C4.48676 7.94953 3.9739 6.71409 3.96997 5.42496C3.96998 4.46014 4.25633 3.51701 4.79266 2.715C5.329 1.91299 6.09122 1.28818 6.98288 0.919648C7.87454 0.551116 8.85554 0.455439 9.80161 0.644761C10.7477 0.834083 11.6162 1.29989 12.2974 1.98317C12.9786 2.66645 13.4417 3.53651 13.6281 4.48316C13.8145 5.4298 13.7159 6.41044 13.3446 7.30097C12.9733 8.19149 12.3461 8.95182 11.5425 9.48569ZM6.70978 4.00827C6.42958 4.42762 6.28003 4.92062 6.28003 5.42496C6.28003 6.10126 6.5487 6.74987 7.02692 7.22809C7.50513 7.70631 8.15365 7.97498 8.82996 7.97498C9.3343 7.97498 9.82739 7.82543 10.2467 7.54523C10.6661 7.26503 10.9929 6.86677 11.1859 6.40082C11.3789 5.93487 11.4294 5.42216 11.331 4.92751C11.2326 4.43285 10.9897 3.9785 10.6331 3.62187C10.2765 3.26525 9.82211 3.02236 9.32745 2.92397C8.8328 2.82557 8.32014 2.87607 7.85419 3.06908C7.38824 3.26208 6.98998 3.58893 6.70978 4.00827Z" fill="white"/>
<path d="M5.125 11.6951H12.535C13.8253 11.6951 15.063 12.2066 15.9768 13.1176C16.8906 14.0286 17.406 15.2647 17.41 16.5551V18.415C17.41 18.5667 17.3802 18.7169 17.3221 18.8571C17.2641 18.9972 17.179 19.1245 17.0717 19.2317C16.9645 19.339 16.8371 19.4241 16.697 19.4821C16.5569 19.5402 16.4067 19.5701 16.255 19.5701C16.1033 19.5701 15.9531 19.5402 15.813 19.4821C15.6728 19.4241 15.5456 19.339 15.4383 19.2317C15.3311 19.1245 15.246 18.9972 15.1879 18.8571C15.1299 18.7169 15.1 18.5667 15.1 18.415V16.5551C15.0961 15.8774 14.824 15.2288 14.3434 14.751C13.8628 14.2732 13.2127 14.005 12.535 14.005H5.125C4.44731 14.005 3.79716 14.2732 3.31656 14.751C2.83596 15.2288 2.56393 15.8774 2.55997 16.5551V18.415C2.55997 18.5667 2.53012 18.7169 2.47208 18.8571C2.41403 18.9972 2.32893 19.1245 2.22168 19.2317C2.11443 19.339 1.98709 19.4241 1.84695 19.4821C1.70682 19.5402 1.55671 19.5701 1.40503 19.5701C1.25335 19.5701 1.10314 19.5402 0.963013 19.4821C0.822882 19.4241 0.695539 19.339 0.588287 19.2317C0.481036 19.1245 0.395935 18.9972 0.337891 18.8571C0.279846 18.7169 0.25 18.5667 0.25 18.415V16.5551C0.25397 15.2647 0.769357 14.0286 1.68317 13.1176C2.59698 12.2066 3.83466 11.6951 5.125 11.6951Z" fill="white"/>
<path d="M19.33 11.845C19.0316 11.7674 18.7147 11.8116 18.4489 11.9677C18.1831 12.1238 17.9902 12.3792 17.9126 12.6776C17.835 12.9759 17.8791 13.2929 18.0353 13.5587C18.1914 13.8245 18.4467 14.0174 18.7451 14.095C19.2923 14.2346 19.7777 14.5518 20.1252 14.997C20.4727 15.4423 20.6626 15.9903 20.665 16.555V18.415C20.665 18.7214 20.7867 19.0151 21.0033 19.2317C21.2199 19.4483 21.5137 19.5701 21.8201 19.5701C22.1264 19.5701 22.4202 19.4483 22.6368 19.2317C22.8534 19.0151 22.9751 18.7214 22.9751 18.415V16.555C22.976 15.4769 22.6184 14.429 21.9586 13.5763C21.2987 12.7236 20.374 12.1146 19.33 11.845Z" fill="white"/>
<path d="M15.1574 0.68994C15.3085 0.668315 15.4623 0.676837 15.6101 0.715026V0.745009C16.6541 1.01704 17.5785 1.62775 18.2383 2.48144C18.898 3.33514 19.2559 4.38361 19.2559 5.46254C19.2559 6.54146 18.898 7.58989 18.2383 8.44359C17.5785 9.29728 16.6541 9.90799 15.6101 10.18C15.5156 10.1947 15.4195 10.1947 15.3251 10.18C15.1201 10.1835 14.918 10.1317 14.7401 10.03C14.5442 9.91137 14.3874 9.73786 14.2892 9.53096C14.191 9.32406 14.1557 9.09289 14.1876 8.8661C14.2196 8.63932 14.3173 8.42685 14.4689 8.25513C14.6204 8.0834 14.819 7.95996 15.0401 7.90004C15.5861 7.75767 16.0695 7.43817 16.4146 6.99165C16.7596 6.54514 16.9467 5.99679 16.9467 5.43251C16.9467 4.86823 16.7596 4.31988 16.4146 3.87337C16.0695 3.42685 15.5861 3.1074 15.0401 2.96503C14.7451 2.88386 14.493 2.69178 14.3365 2.42898C14.1799 2.16619 14.131 1.85303 14.2001 1.55502C14.2368 1.40691 14.3026 1.26756 14.3935 1.145C14.4845 1.02245 14.5988 0.919109 14.7299 0.841002C14.861 0.762895 15.0064 0.711566 15.1574 0.68994Z" fill="white"/>
</svg>
