<svg width="20" height="20" viewBox="0 0 25 24" fill="none" xmlns="http://www.w3.org/2000/svg">
<g id="Name=Tutorials, State=True" clip-path="url(#clip0_26_3546)">
<path id="Vector" fill-rule="evenodd" clip-rule="evenodd" d="M23.51 18.45H22.235V4.74001C22.235 3.61501 21.335 2.70001 20.21 2.70001H4.79C3.665 2.70001 2.75 3.61501 2.75 4.74001V18.45H1.49C0.935 18.45 0.5 18.9 0.5 19.44C0.5 19.995 0.935 20.43 1.49 20.43H23.51C24.05 20.43 24.5 19.995 24.5 19.44C24.5 18.9 24.05 18.45 23.51 18.45ZM15.92 12.285L11.525 14.79C11.27 14.94 10.955 14.94 10.7 14.79C10.445 14.64 10.295 14.37 10.295 14.07V9.07501C10.295 8.77501 10.445 8.50501 10.7 8.35501C10.955 8.20501 11.27 8.20501 11.525 8.35501L15.92 10.86C16.175 10.995 16.34 11.28 16.34 11.565C16.34 11.865 16.175 12.15 15.92 12.285Z" fill="white"/>
</g>
<defs>
<clipPath id="clip0_26_3546">
<rect width="24" height="24" fill="white" transform="translate(0.5)"/>
</clipPath>
</defs>
</svg>
