<svg width="20" height="20" viewBox="0 0 25 24" fill="none" xmlns="http://www.w3.org/2000/svg">
<g id="Name=Vendor, State=True">
<path id="Vector" fill-rule="evenodd" clip-rule="evenodd" d="M8.15009 3.5375C8.15009 2.23963 9.20222 1.1875 10.5001 1.1875H14.5001C15.798 1.1875 16.8501 2.23963 16.8501 3.5375V7.5375C16.8501 8.83537 15.798 9.8875 14.5001 9.8875H13.3001V12.7375H19.0001C20.2703 12.7375 21.3001 13.7672 21.3001 15.0375V15.7875V17.3795C22.4427 17.7229 23.2751 18.783 23.2751 20.0375C23.2751 21.57 22.0327 22.8125 20.5001 22.8125C18.9675 22.8125 17.7251 21.57 17.7251 20.0375C17.7251 18.783 18.5575 17.7229 19.7001 17.3795V15.7875V15.0375C19.7001 14.6509 19.3867 14.3375 19.0001 14.3375H13.3001V17.3795C14.4427 17.7229 15.2751 18.783 15.2751 20.0375C15.2751 21.57 14.0327 22.8125 12.5001 22.8125C10.9675 22.8125 9.7251 21.57 9.7251 20.0375C9.7251 18.783 10.5575 17.7229 11.7001 17.3795V14.3375H6.00009C5.61349 14.3375 5.30009 14.6509 5.30009 15.0375V17.3795C6.44269 17.7229 7.2751 18.783 7.2751 20.0375C7.2751 21.57 6.03269 22.8125 4.5001 22.8125C2.96751 22.8125 1.7251 21.57 1.7251 20.0375C1.7251 18.783 2.5575 17.7229 3.70009 17.3795V15.0375C3.70009 13.7672 4.72984 12.7375 6.00009 12.7375H11.7001V9.8875H10.5001C9.20222 9.8875 8.15009 8.83537 8.15009 7.5375V3.5375Z" fill="white"/>
</g>
</svg>
